<svg width="255" height="39" viewBox="0 0 255 39" fill="none" xmlns="http://www.w3.org/2000/svg">
<mask id="mask0_1_331" style="mask-type:alpha" maskUnits="userSpaceOnUse" x="0" y="0" width="255" height="39">
<path d="M254.561 0H7.00005C3.13405 0 4.57764e-05 3.13401 4.57764e-05 7V38.4439H254.561V0Z" fill="#C4C4C4"/>
</mask>
<g mask="url(#mask0_1_331)">
<path fill-rule="evenodd" clip-rule="evenodd" d="M120.048 15.7427C119.888 15.5827 119.696 15.4867 119.44 15.4867C119.281 15.4867 119.025 15.5827 118.833 15.6467C118.066 16.3187 117.363 16.6707 116.788 16.6707C115.829 16.6707 114.998 15.9027 113.944 14.9428C112.985 14.0789 111.962 13.1509 110.684 12.543C110.077 12.287 109.469 12.191 108.702 12.191C107.488 12.191 106.146 12.543 104.772 12.799C103.557 13.0549 102.471 13.3109 101.512 13.3109C100.841 13.3109 100.393 13.1509 100.042 12.895C99.1789 12.127 99.3707 11.6151 99.4346 11.4231C99.8501 10.3032 102.279 9.37524 104.324 9.37524C104.931 9.37524 105.443 9.47123 105.858 9.63122C106.018 9.72721 106.21 9.79121 106.465 9.98319C107.424 10.5911 108.862 11.4551 110.332 11.4551C111.451 11.4551 112.378 10.9431 113.081 9.9192C113.24 9.56723 113.24 9.15126 112.985 8.89528C112.825 8.6393 112.569 8.54331 112.314 8.54331C112.218 8.54331 112.154 8.54331 112.058 8.6393C111.898 8.73529 111.706 8.73529 111.547 8.73529C110.077 8.73529 108.638 6.2395 107.776 4.54363C107.424 3.93568 107.168 3.42372 106.913 3.00776C105.539 0.959922 103.493 0 101.096 0C100.905 0 90.4864 0 89.0163 0C87.9617 0.0319974 86.8431 0.0319974 85.9164 0.0319974C85.405 0.0319974 84.8937 0.0319974 84.4463 0.0319974H-92.4731V33.1813H84.9576C85.0535 33.1813 85.1174 33.1813 85.3092 33.1813C85.4689 33.1813 85.7246 33.1813 85.9803 33.1813C87.8658 33.1813 89.4957 32.9253 91.0296 32.7654C92.308 32.6054 93.5863 32.4134 94.8007 32.4134C96.1749 32.4134 97.3573 32.6694 98.5717 33.1813C98.6676 33.2773 98.8274 33.2773 98.9233 33.2773C99.1789 33.2773 99.4346 33.1813 99.5944 32.9253C99.8501 32.5734 99.8501 32.1574 99.5944 31.8054C97.5491 28.8937 96.079 28.3817 94.4491 28.3817C94.2894 28.3817 94.0976 28.3817 93.9378 28.3817C93.778 28.3817 93.5863 28.3817 93.4265 28.3817C92.8193 28.3817 92.0523 28.2857 91.0296 27.6138C90.2626 27.0058 89.8152 25.7259 90.007 25.118C90.007 25.022 90.1029 24.766 90.6781 24.766C90.774 24.766 90.9338 24.766 91.0296 24.766C92.308 24.926 93.778 26.2379 95.1522 27.4218C96.5264 28.6377 97.7089 29.7256 99.0831 29.9816C99.4985 30.0776 100.042 30.0776 100.457 30.0776C103.014 30.0776 104.835 28.8617 106.465 27.7738C107.744 26.9098 108.766 26.2379 109.981 26.2379C110.332 26.2379 110.652 26.3339 111.003 26.3979C111.099 26.3979 111.163 26.4939 111.355 26.4939C111.706 26.4939 111.962 26.3339 112.122 26.0779C112.378 25.7259 112.282 25.214 111.962 24.958C111.291 24.35 110.428 23.9981 109.469 23.9981C108.702 23.9981 107.935 24.158 107.168 24.35C106.497 24.51 105.89 24.702 105.283 24.702C105.187 24.702 105.027 24.702 104.931 24.702C103.717 24.542 103.653 23.4861 103.717 23.1661C103.813 22.4942 104.228 21.6942 105.187 21.6942H105.283C106.401 21.6942 107.424 22.2062 108.447 22.7182C109.565 23.2301 110.748 23.8381 112.218 23.8381C112.985 23.8381 113.848 23.6781 114.615 23.2301C117.107 22.0142 118.641 19.7104 120.016 17.6626L120.367 17.1506C120.623 16.7986 120.527 16.2867 120.207 15.9347L120.048 15.8387V15.7427Z" fill="url(#paint0_radial_1_331)"/>
</g>
<path d="M40.7536 9.59531L38.2336 22.1953H34.6696L35.6416 17.2993H30.7996L29.8276 22.1953H26.2636L28.7836 9.59531H32.3476L31.4116 14.3113H36.2536L37.1896 9.59531H40.7536ZM49.3695 22.4473C48.0975 22.4473 46.9875 22.2133 46.0395 21.7453C45.1035 21.2773 44.3775 20.6233 43.8615 19.7833C43.3575 18.9433 43.1055 17.9833 43.1055 16.9033C43.1055 15.4633 43.4355 14.1673 44.0955 13.0153C44.7675 11.8633 45.6975 10.9633 46.8855 10.3153C48.0855 9.66731 49.4475 9.34331 50.9715 9.34331C52.2435 9.34331 53.3475 9.57731 54.2835 10.0453C55.2315 10.5133 55.9575 11.1673 56.4615 12.0073C56.9775 12.8473 57.2355 13.8073 57.2355 14.8873C57.2355 16.3273 56.8995 17.6233 56.2275 18.7753C55.5675 19.9273 54.6375 20.8273 53.4375 21.4753C52.2495 22.1233 50.8935 22.4473 49.3695 22.4473ZM49.6755 19.4953C50.4675 19.4953 51.1635 19.2973 51.7635 18.9013C52.3635 18.5053 52.8255 17.9773 53.1495 17.3173C53.4735 16.6453 53.6355 15.9073 53.6355 15.1033C53.6355 14.2513 53.3715 13.5733 52.8435 13.0693C52.3275 12.5533 51.6015 12.2953 50.6655 12.2953C49.8735 12.2953 49.1775 12.4933 48.5775 12.8893C47.9775 13.2853 47.5155 13.8193 47.1915 14.4913C46.8675 15.1513 46.7055 15.8833 46.7055 16.6873C46.7055 17.5393 46.9635 18.2233 47.4795 18.7393C48.0075 19.2433 48.7395 19.4953 49.6755 19.4953ZM64.0384 12.4213H60.1684L60.7444 9.59531H72.0304L71.4544 12.4213H67.6024L65.6404 22.1953H62.0764L64.0384 12.4213Z" fill="white"/>
<defs>
<radialGradient id="paint0_radial_1_331" cx="0" cy="0" r="1" gradientUnits="userSpaceOnUse" gradientTransform="translate(101.393 2.58403) scale(185.759 77.383)">
<stop stop-color="#F18917"/>
<stop offset="0.0705882" stop-color="#F18917"/>
<stop offset="1" stop-color="#E32124"/>
</radialGradient>
</defs>
</svg>
