<svg width="74" height="56" viewBox="0 0 74 56" fill="none" xmlns="http://www.w3.org/2000/svg">
<path d="M72.0147 25.8788C68.7447 10.874 63.8234 2.86533 56.5232 0.677738C54.9886 0.220892 53.3969 -0.00734229 51.7977 0.000180041C49.6839 0.000180041 47.8431 0.522822 45.8958 1.07676C43.5493 1.74493 40.8836 2.50386 36.9968 2.50386C33.1101 2.50386 30.4428 1.74649 28.0916 1.07833C26.1429 0.522822 24.3036 0.000180041 22.196 0.000180041C20.5423 -0.00563958 18.8959 0.221868 17.304 0.676173C10.0423 2.85437 5.12412 10.8599 1.80626 25.8694C-1.76136 42.0213 -0.00530437 52.2191 6.73062 54.585C7.65395 54.9154 8.62545 55.0857 9.60446 55.0889C14.2189 55.0889 17.9191 51.1879 20.4476 47.9941C23.3045 44.3794 26.6486 42.5455 36.9968 42.5455C46.2396 42.5455 50.0647 43.8176 53.3687 47.9941C55.4455 50.6198 57.4081 52.4569 59.3662 53.6133C61.9702 55.1499 64.5727 55.491 67.0996 54.6101C71.0804 53.2315 73.3622 49.5871 73.8833 43.7754C74.2796 39.3189 73.669 33.4649 72.0147 25.8788ZM29.5964 25.0369H24.6628V30.0443C24.6628 30.7083 24.4029 31.3451 23.9403 31.8147C23.4777 32.2842 22.8502 32.548 22.196 32.548C21.5417 32.548 20.9143 32.2842 20.4517 31.8147C19.9891 31.3451 19.7292 30.7083 19.7292 30.0443V25.0369H14.7955C14.1413 25.0369 13.5139 24.7732 13.0513 24.3036C12.5886 23.8341 12.3287 23.1973 12.3287 22.5333C12.3287 21.8693 12.5886 21.2324 13.0513 20.7629C13.5139 20.2934 14.1413 20.0296 14.7955 20.0296H19.7292V15.0222C19.7292 14.3582 19.9891 13.7214 20.4517 13.2519C20.9143 12.7823 21.5417 12.5186 22.196 12.5186C22.8502 12.5186 23.4777 12.7823 23.9403 13.2519C24.4029 13.7214 24.6628 14.3582 24.6628 15.0222V20.0296H29.5964C30.2506 20.0296 30.8781 20.2934 31.3407 20.7629C31.8033 21.2324 32.0632 21.8693 32.0632 22.5333C32.0632 23.1973 31.8033 23.8341 31.3407 24.3036C30.8781 24.7732 30.2506 25.0369 29.5964 25.0369ZM42.5471 25.6629C41.9373 25.6629 41.3411 25.4793 40.834 25.1354C40.327 24.7915 39.9317 24.3028 39.6984 23.7309C39.465 23.1591 39.4039 22.5298 39.5229 21.9227C39.6419 21.3156 39.9355 20.758 40.3668 20.3203C40.798 19.8826 41.3474 19.5846 41.9456 19.4638C42.5437 19.3431 43.1637 19.405 43.7271 19.6419C44.2906 19.8788 44.7722 20.2799 45.111 20.7946C45.4498 21.3092 45.6307 21.9143 45.6307 22.5333C45.6307 23.3633 45.3058 24.1593 44.7275 24.7462C44.1493 25.3331 43.3649 25.6629 42.5471 25.6629ZM49.3309 32.548C48.7207 32.548 48.1242 32.3642 47.617 32.02C47.1097 31.6758 46.7145 31.1865 46.4813 30.6142C46.2482 30.0419 46.1876 29.4122 46.3072 28.8049C46.4268 28.1976 46.7212 27.64 47.1532 27.2027C47.5852 26.7653 48.1354 26.4678 48.734 26.348C49.3327 26.2281 49.9529 26.2912 50.5162 26.5293C51.0795 26.7673 51.5606 27.1697 51.8985 27.6854C52.2364 28.2011 52.4159 28.8069 52.4144 29.4262C52.4123 30.2549 52.0866 31.0489 51.5085 31.6341C50.9305 32.2193 50.1473 32.548 49.3309 32.548ZM49.3309 18.7778C48.721 18.7778 48.1248 18.5942 47.6178 18.2503C47.1107 17.9064 46.7155 17.4177 46.4821 16.8458C46.2487 16.2739 46.1876 15.6447 46.3066 15.0376C46.4256 14.4305 46.7193 13.8729 47.1505 13.4352C47.5817 12.9975 48.1312 12.6995 48.7293 12.5787C49.3274 12.4579 49.9474 12.5199 50.5109 12.7568C51.0743 12.9937 51.5559 13.3948 51.8947 13.9094C52.2335 14.4241 52.4144 15.0292 52.4144 15.6482C52.4144 16.4782 52.0895 17.2742 51.5112 17.8611C50.933 18.448 50.1487 18.7778 49.3309 18.7778ZM56.1146 25.6629C55.5047 25.6629 54.9086 25.4793 54.4015 25.1354C53.8944 24.7915 53.4992 24.3028 53.2658 23.7309C53.0324 23.1591 52.9714 22.5298 53.0903 21.9227C53.2093 21.3156 53.503 20.758 53.9342 20.3203C54.3655 19.8826 54.9149 19.5846 55.513 19.4638C56.1112 19.3431 56.7312 19.405 57.2946 19.6419C57.858 19.8788 58.3396 20.2799 58.6784 20.7946C59.0173 21.3092 59.1981 21.9143 59.1981 22.5333C59.1981 23.3633 58.8732 24.1593 58.295 24.7462C57.7167 25.3331 56.9324 25.6629 56.1146 25.6629Z" fill="#DFDFDF"/>
</svg>
