<svg width="103" height="26" viewBox="0 0 103 26" fill="none" xmlns="http://www.w3.org/2000/svg">
<g filter="url(#filter0_d_906_8)">
<path d="M17.456 17L14.558 12.86C16.268 12.194 17.24 10.79 17.24 8.882C17.24 6.092 15.188 4.4 11.876 4.4H6.692V17H9.032V13.328H11.876C12.038 13.328 12.2 13.328 12.362 13.31L14.936 17H17.456ZM14.882 8.882C14.882 10.466 13.82 11.402 11.768 11.402H9.032V6.38H11.768C13.82 6.38 14.882 7.298 14.882 8.882ZM28.678 12.248C28.678 9.242 26.626 7.28 23.818 7.28C20.956 7.28 18.85 9.332 18.85 12.194C18.85 15.056 20.938 17.126 24.16 17.126C25.816 17.126 27.166 16.586 28.03 15.56L26.824 14.174C26.14 14.876 25.294 15.218 24.214 15.218C22.54 15.218 21.37 14.318 21.1 12.914H28.642C28.66 12.698 28.678 12.428 28.678 12.248ZM23.818 9.08C25.294 9.08 26.356 10.034 26.536 11.42H21.082C21.298 10.016 22.36 9.08 23.818 9.08ZM36.2933 7.28C34.8893 7.28 33.7193 7.748 32.9813 8.63V7.388H30.8393V17H33.0893V12.14C33.0893 10.214 34.1693 9.242 35.7713 9.242C37.2113 9.242 38.0573 10.07 38.0573 11.78V17H40.3073V11.492C40.3073 8.594 38.5973 7.28 36.2933 7.28ZM48.3095 14.876C47.9675 15.146 47.5175 15.272 47.0495 15.272C46.1855 15.272 45.7175 14.768 45.7175 13.832V9.26H48.2915V7.46H45.7175V5.264H43.4675V7.46H41.8835V9.26H43.4675V13.886C43.4675 16.01 44.6735 17.126 46.7795 17.126C47.5895 17.126 48.3995 16.91 48.9395 16.478L48.3095 14.876ZM64.8551 4.4V12.932L57.9071 4.4H55.9811V17H58.3031V8.468L65.2511 17H67.1771V4.4H64.8551ZM74.6573 17.126C77.6453 17.126 79.7873 15.074 79.7873 12.194C79.7873 9.314 77.6453 7.28 74.6573 7.28C71.7053 7.28 69.5453 9.314 69.5453 12.194C69.5453 15.074 71.7053 17.126 74.6573 17.126ZM74.6573 15.2C73.0373 15.2 71.8133 14.03 71.8133 12.194C71.8133 10.358 73.0373 9.188 74.6573 9.188C76.2953 9.188 77.5193 10.358 77.5193 12.194C77.5193 14.03 76.2953 15.2 74.6573 15.2ZM94.6712 7.388L92.0612 14.516L89.4692 7.388H87.5792L84.9332 14.48L82.3952 7.388H80.2712L83.7992 17H85.9592L88.4792 10.376L90.9632 17H93.1232L96.6692 7.388H94.6712Z" fill="url(#paint0_linear_906_8)"/>
</g>
<defs>
<filter id="filter0_d_906_8" x="0.692017" y="0.399902" width="101.977" height="24.7261" filterUnits="userSpaceOnUse" color-interpolation-filters="sRGB">
<feFlood flood-opacity="0" result="BackgroundImageFix"/>
<feColorMatrix in="SourceAlpha" type="matrix" values="0 0 0 0 0 0 0 0 0 0 0 0 0 0 0 0 0 0 127 0" result="hardAlpha"/>
<feOffset dy="2"/>
<feGaussianBlur stdDeviation="3"/>
<feComposite in2="hardAlpha" operator="out"/>
<feColorMatrix type="matrix" values="0 0 0 0 0 0 0 0 0 0 0 0 0 0 0 0 0 0 0.16 0"/>
<feBlend mode="normal" in2="BackgroundImageFix" result="effect1_dropShadow_906_8"/>
<feBlend mode="normal" in="SourceGraphic" in2="effect1_dropShadow_906_8" result="shape"/>
</filter>
<linearGradient id="paint0_linear_906_8" x1="5" y1="0" x2="98.2572" y2="6.82729" gradientUnits="userSpaceOnUse">
<stop stop-color="#1BACF4"/>
<stop offset="1" stop-color="#19EEB5"/>
</linearGradient>
</defs>
</svg>
