<svg width="30" height="22" viewBox="0 0 30 22" fill="none" xmlns="http://www.w3.org/2000/svg">
<path fill-rule="evenodd" clip-rule="evenodd" d="M7.0181 19.6307H6.54667C5.63385 19.6307 4.66399 18.6265 4.66399 17.6814C4.66399 16.87 4.67299 16.5218 5.31857 15.8534C6.55268 14.5726 8.90078 15.3995 8.90078 17.4731C8.90078 18.6483 7.88287 19.6307 7.0181 19.6307ZM20.3981 17.4731C20.3981 15.1415 23.4939 14.3518 24.4788 16.5187C25.5387 18.8472 22.548 20.6721 21.0166 18.9902C20.7524 18.698 20.3981 18.0079 20.3981 17.4731ZM26.5836 16.7084H26.0462C26.0311 16.0773 25.5267 15.2565 25.1093 14.8244C22.578 12.2036 19.0979 14.728 19.0529 16.7084H15.6238C15.6238 16.3508 15.78 15.7726 15.867 15.4275L17.8428 6.33414L23.0104 6.34346C23.674 6.41497 24.4908 6.67611 24.9682 6.96212C25.1754 7.08648 25.5417 7.33208 25.7249 7.49995C26.4605 8.17146 26.968 8.75593 27.3313 9.87511C27.8237 11.386 27.2953 12.6762 27.004 14.4296C26.8749 15.2068 26.7458 15.984 26.5806 16.7084H26.5836ZM0.292065 1.11439C0.292065 1.42527 0.48724 1.6833 0.709439 1.79522C0.979682 1.9289 1.39405 1.88227 1.76939 1.88227H17.3023L14.2756 15.7384C14.2065 16.0244 14.0984 16.4006 14.0744 16.7115H10.309C9.62143 13.6524 6.26142 12.9249 4.44179 14.6068C3.97637 15.0358 3.31277 15.9156 3.24972 16.7115C2.64317 16.7115 2.03963 16.7146 1.43309 16.7115C1.06376 16.7084 0.289062 16.64 0.289062 17.4793C0.289062 18.0731 0.841558 18.2441 1.36102 18.2472C1.98859 18.2503 2.61915 18.2441 3.24671 18.2441C3.42087 19.0182 3.72715 19.584 4.26162 20.1156C5.97616 21.8255 8.65456 21.4089 9.87666 19.3291C10.1469 18.8659 10.1319 18.6794 10.234 18.4462C10.3 18.2939 10.225 18.2441 10.4412 18.2441H19.0469C19.0739 19.4566 20.6623 21.1695 22.3408 21.1695C23.4909 21.1695 24.0704 20.9737 24.9081 20.2742C25.3465 19.9074 25.9831 18.9716 26.0402 18.2441C26.8599 18.2441 27.6616 18.3809 27.8958 17.7281C27.9799 17.4918 28.0459 16.9695 28.097 16.6804C28.1691 16.27 28.2171 16.0213 28.2892 15.6265C28.4633 14.6627 29.0008 12.0575 29.0008 11.1404C29.0008 9.86889 28.4513 8.63468 27.9529 7.83882C27.2502 6.71963 26.2684 5.88646 25.1033 5.35796C24.2325 4.96314 23.4668 4.79837 22.4129 4.80458C21.0016 4.8108 19.5874 4.80458 18.1761 4.80458C18.2422 4.65847 18.9838 1.26983 18.9838 1.04599C18.9838 0.707127 18.6025 0.349609 18.2452 0.349609H1.03073C0.637375 0.349609 0.292065 0.707127 0.292065 1.11439Z" fill="#9B9B9B" stroke="#171717" stroke-width="0.1"/>
</svg>
