<svg width="28" height="28" viewBox="0 0 28 28" fill="none" xmlns="http://www.w3.org/2000/svg">
<path d="M19.6758 17.4055H18.4801L18.0563 16.9968C19.5395 15.2714 20.4325 13.0314 20.4325 10.5947C20.4325 5.16116 16.0282 0.756836 10.5947 0.756836C5.16116 0.756836 0.756836 5.16116 0.756836 10.5947C0.756836 16.0282 5.16116 20.4325 10.5947 20.4325C13.0314 20.4325 15.2714 19.5395 16.9968 18.0563L17.4055 18.4801V19.6758L24.9731 27.2282L27.2282 24.9731L19.6758 17.4055ZM10.5947 17.4055C6.82603 17.4055 3.78386 14.3633 3.78386 10.5947C3.78386 6.82603 6.82603 3.78386 10.5947 3.78386C14.3633 3.78386 17.4055 6.82603 17.4055 10.5947C17.4055 14.3633 14.3633 17.4055 10.5947 17.4055Z" fill="url(#paint0_linear_1_515)"/>
<defs>
<linearGradient id="paint0_linear_1_515" x1="0.756836" y1="0.756836" x2="27.7255" y2="1.22896" gradientUnits="userSpaceOnUse">
<stop stop-color="#1BACF4"/>
<stop offset="1" stop-color="#19EEB5"/>
</linearGradient>
</defs>
</svg>
