<svg width="19" height="19" viewBox="0 0 19 19" fill="none" xmlns="http://www.w3.org/2000/svg">
<path d="M5.7 15.2C4.655 15.2 3.8095 16.055 3.8095 17.1C3.8095 18.145 4.655 19 5.7 19C6.745 19 7.6 18.145 7.6 17.1C7.6 16.055 6.745 15.2 5.7 15.2ZM0 0V1.9H1.9L5.32 9.1105L4.0375 11.438C3.8855 11.704 3.8 12.0175 3.8 12.35C3.8 13.395 4.655 14.25 5.7 14.25H17.1V12.35H6.099C5.966 12.35 5.8615 12.2455 5.8615 12.1125L5.89 11.9985L6.745 10.45H13.8225C14.535 10.45 15.162 10.0605 15.485 9.4715L18.886 3.306C18.962 3.173 19 3.0115 19 2.85C19 2.3275 18.5725 1.9 18.05 1.9H3.9995L3.1065 0H0ZM15.2 15.2C14.155 15.2 13.3095 16.055 13.3095 17.1C13.3095 18.145 14.155 19 15.2 19C16.245 19 17.1 18.145 17.1 17.1C17.1 16.055 16.245 15.2 15.2 15.2Z" fill="url(#paint0_linear_1_519)"/>
<defs>
<linearGradient id="paint0_linear_1_519" x1="0" y1="0" x2="19.3569" y2="0.338873" gradientUnits="userSpaceOnUse">
<stop stop-color="#1BACF4"/>
<stop offset="1" stop-color="#19EEB5"/>
</linearGradient>
</defs>
</svg>
